<svg width="145" height="37" viewBox="0 0 145 37" fill="none" xmlns="http://www.w3.org/2000/svg">
<g clip-path="url(#clip0_3_1093)">
<path d="M134.155 13.335C130.092 17.375 121.284 20.844 116.95 22.468C111.03 24.692 108.404 25.479 105.092 26.557C101.343 27.773 93.843 30.043 93.843 30.043C109.379 34.681 120.325 36.079 120.325 36.079C120.325 36.079 125.427 34.504 133.507 30.183C137.882 27.958 140.034 26.461 141.575 25.03C142.141 24.517 143.608 22.991 143.974 21.037C143.996 20.894 144.067 20.521 144.067 20.154C144.067 20.154 144.067 19.894 144.044 19.67C144.037 19.41 143.989 19.237 143.989 19.237C143.989 19.237 143.904 18.774 143.79 18.449C143.671 18.124 143.171 17.121 142.36 16.47C141.817 16.031 140.883 14.935 137.496 13.743C136.343 13.343 134.479 12.973 134.479 12.973L134.155 13.335Z" fill="#2E5C99"/>
<path d="M144.067 20.048C144.067 20.048 144.044 19.616 143.938 19.249C143.856 18.923 143.709 18.61 143.492 18.283C143.227 17.893 142.871 17.436 142.343 16.929C141.942 16.553 141.505 16.22 140.982 15.867C138.861 14.478 136.127 13.696 133.704 13.365C129.954 12.867 125.651 12.954 125.243 12.94C123.859 12.92 114.918 12.994 112.618 13.035C102.41 13.246 89.913 13.273 86.639 13.273C52.847 13.427 38.135 12.7 21.764 9.41801C7.83499 6.65201 0.106995 4.02401 0.106995 4.02401C12.392 3.60001 84.071 0.625005 97.147 0.277005C105.71 0.0360055 111.787 -0.0159945 116.651 0.265005C119.145 0.405005 121.466 0.617005 124.38 1.11201C126.993 1.55901 129.367 2.31801 130.75 2.83201C133.663 3.91001 136.117 5.47001 137.329 7.06701C137.329 7.06701 137.688 7.43401 138.175 8.08801C138.722 8.84701 139.355 9.78101 139.57 10.129C141.342 12.814 142.184 14.502 142.476 15.089C142.792 15.707 143.072 16.349 143.343 16.977C143.609 17.6 143.718 17.978 143.805 18.242C143.99 18.902 144.037 19.505 144.044 19.638L144.067 20.048Z" fill="#CD2627"/>
</g>
<defs>
<clipPath id="clip0_3_1093">
<rect width="144.104" height="36.125" fill="white"/>
</clipPath>
</defs>
</svg>
