<svg width="185" height="50" viewBox="0 0 185 50" fill="none" xmlns="http://www.w3.org/2000/svg">
<rect x="0.5" y="0.5" width="184" height="49" fill="#2E5C99"/>
<rect x="0.5" y="0.5" width="184" height="49" stroke="#2E5C99"/>
<path d="M52.9268 31H46.9648V20.292H52.9268V21.3906H48.21V24.855H52.6558V25.939H48.21V29.9014H52.9268V31ZM57.0283 26.8911L54.2524 22.9727H55.644L57.7607 26.0635L59.8701 22.9727H61.2471L58.4712 26.8911L61.4009 31H60.0093L57.7607 27.7261L55.4976 31H54.1206L57.0283 26.8911ZM66.7402 22.8262C67.7412 22.8262 68.5396 23.1704 69.1353 23.8589C69.731 24.5474 70.0288 25.5825 70.0288 26.9644C70.0288 27.8774 69.8921 28.644 69.6187 29.2642C69.3452 29.8843 68.9595 30.353 68.4614 30.6704C67.9683 30.9878 67.3848 31.1465 66.7109 31.1465C66.2861 31.1465 65.9126 31.0903 65.5903 30.978C65.2681 30.8657 64.9922 30.7144 64.7627 30.5239C64.5332 30.3335 64.3428 30.126 64.1914 29.9014H64.1035C64.1182 30.0918 64.1353 30.3213 64.1548 30.5898C64.1792 30.8584 64.1914 31.0928 64.1914 31.293V34.5889H62.9683V22.9727H63.9717L64.1328 24.1592H64.1914C64.3477 23.915 64.5381 23.6929 64.7627 23.4927C64.9873 23.2876 65.2607 23.1265 65.583 23.0093C65.9102 22.8872 66.2959 22.8262 66.7402 22.8262ZM66.5278 23.8516C65.9712 23.8516 65.522 23.959 65.1802 24.1738C64.8433 24.3887 64.5967 24.7109 64.4404 25.1406C64.2842 25.5654 64.2012 26.1001 64.1914 26.7446V26.979C64.1914 27.6577 64.2646 28.2314 64.4111 28.7002C64.5625 29.1689 64.8091 29.5254 65.1509 29.7695C65.4976 30.0137 65.9614 30.1357 66.5425 30.1357C67.0405 30.1357 67.4556 30.0015 67.7876 29.7329C68.1196 29.4644 68.3662 29.0908 68.5273 28.6123C68.6934 28.1289 68.7764 27.5747 68.7764 26.9497C68.7764 26.0024 68.5908 25.2505 68.2197 24.6938C67.8535 24.1323 67.2896 23.8516 66.5278 23.8516ZM73.376 31H72.1528V19.6035H73.376V31ZM82.8682 26.9717C82.8682 27.6309 82.7827 28.2192 82.6118 28.7368C82.4409 29.2544 82.1943 29.6914 81.8721 30.0479C81.5498 30.4043 81.1592 30.6777 80.7002 30.8682C80.2461 31.0537 79.731 31.1465 79.1548 31.1465C78.6177 31.1465 78.1245 31.0537 77.6753 30.8682C77.231 30.6777 76.8452 30.4043 76.5181 30.0479C76.1958 29.6914 75.9443 29.2544 75.7637 28.7368C75.5879 28.2192 75.5 27.6309 75.5 26.9717C75.5 26.0928 75.6489 25.3457 75.9468 24.7305C76.2446 24.1104 76.6694 23.6392 77.2212 23.3169C77.7778 22.9897 78.4395 22.8262 79.2061 22.8262C79.9385 22.8262 80.5781 22.9897 81.125 23.3169C81.6768 23.644 82.104 24.1177 82.4067 24.7378C82.7144 25.353 82.8682 26.0977 82.8682 26.9717ZM76.7598 26.9717C76.7598 27.6162 76.8452 28.1753 77.0161 28.6489C77.187 29.1226 77.4507 29.4888 77.8071 29.7476C78.1636 30.0063 78.6226 30.1357 79.1841 30.1357C79.7407 30.1357 80.1973 30.0063 80.5537 29.7476C80.915 29.4888 81.1812 29.1226 81.3521 28.6489C81.5229 28.1753 81.6084 27.6162 81.6084 26.9717C81.6084 26.332 81.5229 25.7803 81.3521 25.3164C81.1812 24.8477 80.9175 24.4863 80.561 24.2324C80.2046 23.9785 79.7432 23.8516 79.1768 23.8516C78.3418 23.8516 77.729 24.1274 77.3384 24.6792C76.9526 25.231 76.7598 25.9951 76.7598 26.9717ZM88.6177 22.8262C88.7788 22.8262 88.9473 22.8359 89.123 22.8555C89.2988 22.8701 89.4551 22.8921 89.5918 22.9214L89.438 24.0493C89.3062 24.0151 89.1597 23.9883 88.9985 23.9688C88.8374 23.9492 88.686 23.9395 88.5444 23.9395C88.2222 23.9395 87.917 24.0054 87.6289 24.1372C87.3457 24.2642 87.0967 24.4497 86.8818 24.6938C86.667 24.9331 86.4985 25.2236 86.3765 25.5654C86.2544 25.9023 86.1934 26.2783 86.1934 26.6934V31H84.9702V22.9727H85.981L86.1128 24.4521H86.1641C86.3301 24.1543 86.5303 23.8833 86.7646 23.6392C86.999 23.3901 87.27 23.1924 87.5776 23.0459C87.8901 22.8994 88.2368 22.8262 88.6177 22.8262ZM94.1987 22.8262C94.8823 22.8262 95.4683 22.9775 95.9565 23.2803C96.4448 23.583 96.8184 24.0078 97.0771 24.5547C97.3359 25.0967 97.4653 25.7314 97.4653 26.459V27.2134H91.9209C91.9355 28.1558 92.1699 28.8735 92.624 29.3667C93.0781 29.8599 93.7178 30.1064 94.543 30.1064C95.0508 30.1064 95.5 30.0601 95.8906 29.9673C96.2812 29.8745 96.6865 29.7378 97.1064 29.5571V30.6265C96.7012 30.8071 96.2983 30.939 95.8979 31.022C95.5024 31.105 95.0337 31.1465 94.4917 31.1465C93.7202 31.1465 93.0464 30.9902 92.4702 30.6777C91.8989 30.3604 91.4546 29.8965 91.1372 29.2861C90.8198 28.6758 90.6611 27.9287 90.6611 27.0449C90.6611 26.1807 90.8052 25.4336 91.0933 24.8037C91.3862 24.1689 91.7964 23.6807 92.3237 23.3389C92.856 22.9971 93.481 22.8262 94.1987 22.8262ZM94.1841 23.8223C93.5347 23.8223 93.0171 24.0347 92.6313 24.4595C92.2456 24.8843 92.0161 25.4775 91.9429 26.2393H96.1909C96.186 25.7607 96.1104 25.3408 95.9639 24.9795C95.8223 24.6133 95.605 24.3301 95.312 24.1299C95.019 23.9248 94.6431 23.8223 94.1841 23.8223ZM108.32 31L104.724 21.5225H104.665C104.685 21.7227 104.702 21.9668 104.716 22.2549C104.731 22.543 104.743 22.8579 104.753 23.1997C104.763 23.5366 104.768 23.8809 104.768 24.2324V31H103.61V20.292H105.456L108.847 29.1982H108.898L112.341 20.292H114.172V31H112.941V24.1445C112.941 23.8271 112.946 23.5098 112.956 23.1924C112.966 22.8701 112.978 22.5674 112.993 22.2842C113.007 21.9961 113.022 21.7471 113.037 21.5371H112.978L109.338 31H108.32ZM123.84 26.9717C123.84 27.6309 123.754 28.2192 123.583 28.7368C123.413 29.2544 123.166 29.6914 122.844 30.0479C122.521 30.4043 122.131 30.6777 121.672 30.8682C121.218 31.0537 120.703 31.1465 120.126 31.1465C119.589 31.1465 119.096 31.0537 118.647 30.8682C118.203 30.6777 117.817 30.4043 117.49 30.0479C117.167 29.6914 116.916 29.2544 116.735 28.7368C116.56 28.2192 116.472 27.6309 116.472 26.9717C116.472 26.0928 116.621 25.3457 116.918 24.7305C117.216 24.1104 117.641 23.6392 118.193 23.3169C118.75 22.9897 119.411 22.8262 120.178 22.8262C120.91 22.8262 121.55 22.9897 122.097 23.3169C122.648 23.644 123.076 24.1177 123.378 24.7378C123.686 25.353 123.84 26.0977 123.84 26.9717ZM117.731 26.9717C117.731 27.6162 117.817 28.1753 117.988 28.6489C118.159 29.1226 118.422 29.4888 118.779 29.7476C119.135 30.0063 119.594 30.1357 120.156 30.1357C120.712 30.1357 121.169 30.0063 121.525 29.7476C121.887 29.4888 122.153 29.1226 122.324 28.6489C122.495 28.1753 122.58 27.6162 122.58 26.9717C122.58 26.332 122.495 25.7803 122.324 25.3164C122.153 24.8477 121.889 24.4863 121.533 24.2324C121.176 23.9785 120.715 23.8516 120.148 23.8516C119.313 23.8516 118.701 24.1274 118.31 24.6792C117.924 25.231 117.731 25.9951 117.731 26.9717ZM129.589 22.8262C129.75 22.8262 129.919 22.8359 130.095 22.8555C130.271 22.8701 130.427 22.8921 130.563 22.9214L130.41 24.0493C130.278 24.0151 130.131 23.9883 129.97 23.9688C129.809 23.9492 129.658 23.9395 129.516 23.9395C129.194 23.9395 128.889 24.0054 128.601 24.1372C128.317 24.2642 128.068 24.4497 127.854 24.6938C127.639 24.9331 127.47 25.2236 127.348 25.5654C127.226 25.9023 127.165 26.2783 127.165 26.6934V31H125.942V22.9727H126.953L127.084 24.4521H127.136C127.302 24.1543 127.502 23.8833 127.736 23.6392C127.971 23.3901 128.242 23.1924 128.549 23.0459C128.862 22.8994 129.208 22.8262 129.589 22.8262ZM135.17 22.8262C135.854 22.8262 136.44 22.9775 136.928 23.2803C137.417 23.583 137.79 24.0078 138.049 24.5547C138.308 25.0967 138.437 25.7314 138.437 26.459V27.2134H132.893C132.907 28.1558 133.142 28.8735 133.596 29.3667C134.05 29.8599 134.689 30.1064 135.515 30.1064C136.022 30.1064 136.472 30.0601 136.862 29.9673C137.253 29.8745 137.658 29.7378 138.078 29.5571V30.6265C137.673 30.8071 137.27 30.939 136.87 31.022C136.474 31.105 136.005 31.1465 135.463 31.1465C134.692 31.1465 134.018 30.9902 133.442 30.6777C132.871 30.3604 132.426 29.8965 132.109 29.2861C131.792 28.6758 131.633 27.9287 131.633 27.0449C131.633 26.1807 131.777 25.4336 132.065 24.8037C132.358 24.1689 132.768 23.6807 133.295 23.3389C133.828 22.9971 134.453 22.8262 135.17 22.8262ZM135.156 23.8223C134.506 23.8223 133.989 24.0347 133.603 24.4595C133.217 24.8843 132.988 25.4775 132.915 26.2393H137.163C137.158 25.7607 137.082 25.3408 136.936 24.9795C136.794 24.6133 136.577 24.3301 136.284 24.1299C135.991 23.9248 135.615 23.8223 135.156 23.8223Z" fill="white"/>
</svg>
