<svg width="24" height="24" viewBox="0 0 24 24" fill="none" xmlns="http://www.w3.org/2000/svg">
<path fill-rule="evenodd" clip-rule="evenodd" d="M8.32458 7.09394C6.84384 5.73257 5.3271 4.4072 3.781 3.1112C3.60763 2.96531 3.34994 2.96057 3.16994 3.1112C2.9691 3.27983 2.94258 3.58015 3.11121 3.78099C4.40721 5.3271 5.73258 6.84384 7.09395 8.32457C8.20629 9.60094 9.40229 10.7937 10.6122 11.9725C9.40253 13.1515 8.20722 14.3449 7.09489 15.6212C5.73352 17.102 4.40815 18.6187 3.1112 20.1639C2.96531 20.3372 2.96057 20.5959 3.1112 20.7749C3.27984 20.9758 3.58015 21.0023 3.78099 20.8337C5.32615 19.5367 6.84289 18.2114 8.32363 16.85C9.6 15.7376 10.7934 14.5423 11.9724 13.3326C13.1514 14.5423 14.3448 15.7376 15.6212 16.85C17.1019 18.2113 18.6187 19.5367 20.1638 20.8337C20.3372 20.9796 20.5958 20.9843 20.7749 20.8337C20.9757 20.665 21.0023 20.3647 20.8336 20.1639C19.5367 18.6187 18.2113 17.102 16.8499 15.6212C15.7376 14.3449 14.5423 13.1515 13.3326 11.9725C14.5425 10.7937 15.7385 9.60095 16.8509 8.32458C18.2123 6.84384 19.5376 5.3271 20.8336 3.781C20.9795 3.60763 20.9843 3.349 20.8336 3.16994C20.665 2.9691 20.3647 2.94258 20.1638 3.11121C18.6177 4.40721 17.101 5.73258 15.6203 7.09394C14.3439 8.20627 13.1512 9.40225 11.9724 10.6122C10.7936 9.40224 9.60093 8.20627 8.32458 7.09394Z" fill="#021B41"/>
</svg>
