<svg width="54" height="12" viewBox="0 0 54 12" fill="none" xmlns="http://www.w3.org/2000/svg">
<path d="M0.367188 11V1.00586H1.5293V9.96094H5.96582V11H0.367188ZM18.1496 5.98926C18.1496 6.75944 18.0516 7.46126 17.8557 8.09473C17.6597 8.72363 17.368 9.26595 16.9807 9.72168C16.5979 10.1729 16.1216 10.5215 15.552 10.7676C14.9823 11.0137 14.3215 11.1367 13.5695 11.1367C12.7948 11.1367 12.118 11.0137 11.5393 10.7676C10.965 10.5215 10.4865 10.1706 10.1037 9.71484C9.72546 9.25911 9.44063 8.71452 9.24922 8.08105C9.06237 7.44759 8.96895 6.74577 8.96895 5.97559C8.96895 4.95475 9.13757 4.05924 9.4748 3.28906C9.81204 2.51888 10.3225 1.9196 11.0061 1.49121C11.6942 1.06283 12.5555 0.848633 13.59 0.848633C14.579 0.848633 15.4107 1.06055 16.0852 1.48438C16.7642 1.9082 17.2769 2.50521 17.6232 3.27539C17.9742 4.04102 18.1496 4.94564 18.1496 5.98926ZM10.1926 5.98926C10.1926 6.83691 10.3133 7.57064 10.5549 8.19043C10.7964 8.81022 11.1656 9.28874 11.6623 9.62598C12.1636 9.96322 12.7993 10.1318 13.5695 10.1318C14.3443 10.1318 14.9777 9.96322 15.4699 9.62598C15.9667 9.28874 16.3335 8.81022 16.5705 8.19043C16.8075 7.57064 16.926 6.83691 16.926 5.98926C16.926 4.69954 16.6548 3.69238 16.1125 2.96777C15.5747 2.23861 14.7339 1.87402 13.59 1.87402C12.8153 1.87402 12.1773 2.04036 11.676 2.37305C11.1747 2.70573 10.801 3.17969 10.5549 3.79492C10.3133 4.4056 10.1926 5.13704 10.1926 5.98926ZM26.4506 5.76367H29.9438V10.6104C29.4197 10.7881 28.8796 10.9202 28.3236 11.0068C27.7722 11.0934 27.1547 11.1367 26.4711 11.1367C25.432 11.1367 24.5548 10.9294 23.8393 10.5146C23.1283 10.0999 22.5883 9.50977 22.2191 8.74414C21.85 7.97396 21.6654 7.06022 21.6654 6.00293C21.6654 4.96842 21.8682 4.06608 22.2738 3.2959C22.684 2.52572 23.2742 1.92871 24.0443 1.50488C24.8191 1.0765 25.7488 0.862305 26.8334 0.862305C27.3894 0.862305 27.9158 0.914714 28.4125 1.01953C28.9138 1.11979 29.3786 1.26335 29.807 1.4502L29.3627 2.46191C28.9936 2.30241 28.5857 2.16569 28.1391 2.05176C27.697 1.93783 27.239 1.88086 26.765 1.88086C25.9493 1.88086 25.2497 2.04948 24.6664 2.38672C24.0876 2.72396 23.6433 3.2002 23.3334 3.81543C23.0281 4.43066 22.8754 5.15983 22.8754 6.00293C22.8754 6.83691 23.0098 7.5638 23.2787 8.18359C23.5476 8.79883 23.9669 9.27734 24.5365 9.61914C25.1062 9.96094 25.8399 10.1318 26.7377 10.1318C27.1889 10.1318 27.5762 10.1068 27.8998 10.0566C28.2234 10.002 28.5173 9.93815 28.7816 9.86523V6.80273H26.4506V5.76367ZM39.6004 11V1.00586H40.7625V11H39.6004ZM53.124 11H51.7842L46.3359 2.60547H46.2812C46.2949 2.82878 46.3109 3.08398 46.3291 3.37109C46.3473 3.65365 46.361 3.95671 46.3701 4.28027C46.3838 4.59928 46.3906 4.92513 46.3906 5.25781V11H45.3105V1.00586H46.6436L52.0713 9.37305H52.1191C52.11 9.21354 52.0986 8.98796 52.085 8.69629C52.0713 8.40007 52.0576 8.08333 52.0439 7.74609C52.0348 7.4043 52.0303 7.08757 52.0303 6.7959V1.00586H53.124V11Z" fill="#021B41"/>
</svg>
