<svg width="22" height="25" viewBox="0 0 22 25" fill="none" xmlns="http://www.w3.org/2000/svg">
<g clip-path="url(#clip0_3_1078)">
<path fill-rule="evenodd" clip-rule="evenodd" d="M11.0741 2.13014C8.60213 2.13014 6.59163 4.14804 6.59163 6.62914C6.59163 9.11024 8.60213 11.1281 11.0741 11.1281C13.5461 11.1281 15.5566 9.11024 15.5566 6.62914C15.5566 4.14804 13.5461 2.13014 11.0741 2.13014ZM11.0741 13.2574C7.4319 13.2574 4.46973 10.2843 4.46973 6.6287C4.46973 2.97306 7.4319 0 11.0741 0C14.7164 0 17.6785 2.97306 17.6785 6.6287C17.6785 10.2843 14.7164 13.2574 11.0741 13.2574Z" fill="#021B41"/>
<path fill-rule="evenodd" clip-rule="evenodd" d="M20.3926 23.5049C19.1189 22.0166 17.6426 20.7634 16.0191 19.9011C14.3975 19.04 12.6266 18.5788 10.8669 18.6557C9.10727 18.6891 7.3916 19.2572 5.85803 20.1886C4.32242 21.1232 2.96175 22.4177 1.80774 23.9182C1.44762 24.3917 0.802073 24.4563 0.367272 24.063C-0.0603662 23.6765 -0.12175 22.9847 0.220975 22.5123C1.48343 20.7868 3.04871 19.2784 4.88203 18.2257C6.70512 17.164 8.79626 16.607 10.8669 16.6505C12.9396 16.7162 14.9745 17.3802 16.7086 18.5142C18.4539 19.6394 19.9046 21.1878 21.0464 22.9256C21.1824 23.1328 21.1384 23.4191 20.9492 23.5673C20.7742 23.7032 20.5348 23.672 20.3926 23.5049Z" fill="#021B41"/>
</g>
<defs>
<clipPath id="clip0_3_1078">
<rect width="22" height="25" fill="white"/>
</clipPath>
</defs>
</svg>
