<svg width="35" height="35" viewBox="0 0 35 35" fill="none" xmlns="http://www.w3.org/2000/svg">
<path fill-rule="evenodd" clip-rule="evenodd" d="M30.4637 29.6931L25.0048 23.5485C26.5377 21.7055 27.4822 19.3665 27.6112 16.9696C27.7824 14.2346 26.9309 11.4352 25.2214 9.28268C23.5408 7.11706 21.0394 5.59784 18.3368 5.11112C15.639 4.60362 12.7668 5.12752 10.4158 6.55049C8.06591 7.96635 6.24974 10.2496 5.44037 12.8795C4.61677 15.4974 4.77427 18.4111 5.90849 20.9158C7.02302 23.4314 9.08255 25.4888 11.5861 26.6235C14.0881 27.7676 16.9964 27.9377 19.6219 27.136C19.8994 27.0513 20.1319 26.8599 20.2682 26.6039C20.4046 26.3479 20.4336 26.0482 20.349 25.7707C20.2644 25.4932 20.073 25.2607 19.8169 25.1244C19.5609 24.988 19.2612 24.959 18.9837 25.0436L18.9788 25.0447C16.8608 25.69 14.5043 25.5544 12.4901 24.6313C10.4754 23.7191 8.79982 22.0489 7.90513 20.0233C6.98966 18.0053 6.86388 15.645 7.52834 13.533C8.17638 11.416 9.65021 9.56651 11.5457 8.42354C13.4384 7.27784 15.761 6.85127 17.9419 7.26307C20.1438 7.66915 22.1207 8.86753 23.4993 10.6318C24.8801 12.3681 25.5648 14.624 25.4281 16.8378C25.3078 19.0564 24.3311 21.1958 22.761 22.7642L22.7151 22.8102L22.6751 22.8528C22.4933 23.0576 22.4001 23.3262 22.4162 23.5996C22.4323 23.873 22.5563 24.1288 22.761 24.3108L29.6899 30.4664C29.795 30.5554 29.9298 30.6017 30.0674 30.596C30.2051 30.5903 30.3355 30.533 30.4329 30.4356C30.5303 30.3382 30.5876 30.2078 30.5933 30.0701C30.599 29.9325 30.5527 29.7977 30.4637 29.6926V29.6931Z" fill="black"/>
</svg>
